<svg xmlns="http://www.w3.org/2000/svg" width="19.9862mm" height="52.0691mm" viewBox="-10.0074 -6.0323 19.9862 52.0691">
  <rect x="-10.0074" y="-6.0323" width="19.9862" height="52.0691" fill="white"/>
  <polyline points="-2.0031,1.0581 -1.5367,0.5791 -1.0404,0.2377 -0.5242,0.0339 0.0017,-0.0323 0.5274,0.039 1.0426,0.2479 1.5375,0.5942 2.0018,1.078" fill="none" stroke="rgb(0,0,0)" stroke-width="0.25" stroke-linecap="round" stroke-linejoin="round"/>
  <polyline points="-1.9894,5.2682 -1.9894,0.9947" fill="none" stroke="rgb(0,0,0)" stroke-width="0.25" stroke-linecap="round" stroke-linejoin="round"/>
  <polyline points="1.9882,5.2558 1.9633,1.0718" fill="none" stroke="rgb(0,0,0)" stroke-width="0.25" stroke-linecap="round" stroke-linejoin="round"/>
  <polyline points="-4.0012,6.7068 -3.5882,6.2947 -3.1436,5.9323 -2.671,5.6213 -2.1742,5.3635 -1.657,5.1605 -1.123,5.0141 -0.5761,4.9259 -0.0199,4.8977" fill="none" stroke="rgb(0,0,0)" stroke-width="0.25" stroke-linecap="round" stroke-linejoin="round"/>
  <polyline points="-0.0199,4.8977 0.5365,4.9304 1.0832,5.0229 1.6165,5.1735 2.1327,5.3804 2.628,5.642 3.0987,5.9566 3.5411,6.3224 3.9515,6.7379" fill="none" stroke="rgb(0,0,0)" stroke-width="0.25" stroke-linecap="round" stroke-linejoin="round"/>
  <polyline points="3.9788,40.0368 3.9502,6.7254" fill="none" stroke="rgb(0,0,0)" stroke-width="0.25" stroke-linecap="round" stroke-linejoin="round"/>
  <polyline points="-3.9788,40.0368 -4.0074,6.6757" fill="none" stroke="rgb(0,0,0)" stroke-width="0.25" stroke-linecap="round" stroke-linejoin="round"/>
  <polyline points="-3.9788,40.0368 3.9788,40.0368" fill="none" stroke="rgb(0,0,0)" stroke-width="0.25" stroke-linecap="round" stroke-linejoin="round"/>
</svg>
